<svg viewBox="0 0 311.106 356.26" xmlns="http://www.w3.org/2000/svg">
  <path fill="#FF0050" d="M291.855 24.162c-13.2-10.215-22.065-17.662-32.31-4.5-13.028 16.74-35.91 21.975-105.247-6.877C76.696-19.518 20.904 14.322 1.914 59.435c-6.458 15.36 4.26 18.12 19.672 24.57 3.818 1.604 7.163 2.744 11.018 3.952 10.267 2.872 20.234 6.367 25.102-5.183 9.907-23.527 37.98-29.025 73.29-14.332 39.36 16.387 68.084 24.12 93.089 25.08 35.152 1.35 63.165-11.063 83.265-36.893 10.237-13.162-2.295-22.252-15.495-32.467M200.64 245.163c16.08 0 29.145-.682 29.145-16.725v-94.597c0-16.042-13.065-16.724-29.145-16.724s-29.137.682-29.137 16.724v94.597c0 16.043 13.057 16.725 29.137 16.725M49.111 138.521c-18.007 23.738-27.525 52.05-27.525 81.892 0 74.895 61.117 135.847 136.252 135.847 42.877 0 83.774-20.512 109.387-54.87 9.607-12.87-4.538-21.247-17.445-30.824-12.915-9.57-19.718-16.703-29.31-3.833-14.895 19.973-37.732 31.425-62.632 31.425-43.005 0-77.985-34.882-77.985-77.745 0-34.124 22.86-64.762 55.597-74.52 15.428-4.59 11.985-18.802 7.373-34.169-4.598-15.375-8.633-26.077-24.052-21.495-27.525 8.205-52.268 25.365-69.66 48.292"/>
</svg>
